<?xml version="1.0" standalone="no"?>
<!DOCTYPE svg PUBLIC "-//W3C//DTD SVG 20010904//EN"
 "http://www.w3.org/TR/2001/REC-SVG-20010904/DTD/svg10.dtd">
<svg version="1.0" xmlns="http://www.w3.org/2000/svg"
 width="436.000000pt" height="436.000000pt" viewBox="0 0 436.000000 436.000000"
 preserveAspectRatio="xMidYMid meet">
<metadata>
Created by potrace 1.14, written by Peter Selinger 2001-2017
</metadata>
<g transform="translate(0.000000,436.000000) scale(0.100000,-0.100000)"
fill="#000000" stroke="none">
<path d="M2152 4288 c-8 -8 -12 -48 -12 -112 l0 -101 108 -1 107 0 -3 88 -3
88 -57 16 c-31 8 -70 20 -86 25 -37 12 -40 11 -54 -3z"/>
<path d="M1908 4273 c7 -3 16 -2 19 1 4 3 -2 6 -13 5 -11 0 -14 -3 -6 -6z"/>
<path d="M1894 4155 c0 -60 1 -84 3 -52 2 32 2 81 0 110 -2 29 -3 3 -3 -58z"/>
<path d="M2610 4018 c14 -6 52 -23 85 -36 123 -52 290 -190 269 -223 -4 -7 -3
-9 3 -6 14 9 37 -19 27 -34 -4 -7 -3 -9 4 -5 13 8 35 -28 24 -39 -4 -5 -2 -5
4 -2 14 8 27 -20 17 -35 -3 -6 -1 -8 4 -5 6 4 14 0 17 -9 3 -8 2 -12 -4 -9 -6
3 -7 -1 -4 -9 3 -9 10 -16 15 -16 5 0 8 -3 7 -7 -1 -5 13 -52 30 -106 37 -114
38 -117 13 -110 -16 4 -648 -119 -687 -134 -10 -4 -17 2 -21 18 -17 65 -86
180 -134 223 -37 33 -130 96 -143 96 0 0 0 -159 2 -352 l3 -353 117 -34 c193
-57 432 -151 523 -207 20 -13 40 -20 43 -17 3 4 6 1 6 -5 0 -6 9 -14 20 -17
11 -3 27 -14 37 -23 9 -9 20 -17 24 -17 17 0 89 -67 83 -77 -4 -6 -3 -8 3 -5
13 8 45 -26 41 -44 -2 -7 2 -13 7 -14 20 -1 36 -17 31 -32 -3 -8 -2 -12 2 -9
5 3 16 -8 26 -25 9 -16 14 -29 10 -29 -4 0 1 -7 12 -16 10 -8 13 -13 7 -9 -9
4 -11 1 -7 -9 3 -9 10 -16 15 -16 5 0 8 -3 7 -7 -1 -5 8 -35 21 -68 53 -140
75 -334 52 -465 -7 -35 -9 -19 -10 75 -2 212 -57 358 -126 341 -16 -4 -27 -1
-33 10 -5 9 -12 15 -15 15 -21 -3 -27 0 -21 11 4 7 -7 2 -24 -11 -18 -12 -32
-18 -32 -13 0 6 5 12 12 14 9 3 9 6 -1 12 -8 5 -14 1 -18 -13 -6 -25 -18 -27
-27 -5 -3 8 -10 12 -16 9 -5 -3 -10 -2 -10 3 0 5 -14 8 -32 6 -20 -3 -38 2
-50 13 -18 16 -21 16 -50 -2 -17 -10 -28 -13 -24 -7 3 6 2 13 -4 17 -5 3 -10
1 -10 -6 0 -8 -4 -8 -15 1 -12 10 -15 10 -16 -1 0 -8 -4 -5 -9 6 -5 11 -9 15
-9 9 -1 -12 -31 -15 -31 -3 0 5 -11 4 -25 -1 -31 -12 -45 -10 -64 9 -13 12
-17 11 -29 -8 -15 -22 -32 -28 -32 -10 0 5 4 8 8 5 4 -2 9 7 10 20 1 15 -2 23
-8 19 -6 -4 -8 -10 -5 -15 3 -4 -2 -11 -11 -14 -24 -9 -27 -8 -20 10 5 13 4
14 -7 6 -7 -6 -23 -10 -35 -7 -12 2 -22 -1 -22 -7 0 -5 6 -8 14 -5 8 3 17 -1
20 -10 5 -11 2 -14 -10 -9 -8 3 -25 6 -37 7 -12 0 -16 3 -9 6 26 10 1 21 -33
13 -20 -4 -38 -4 -41 1 -3 5 -13 5 -23 -1 -12 -6 -22 -5 -31 3 -10 9 -11 9 -6
0 10 -18 -2 -16 -20 2 -9 8 -21 15 -27 15 -7 0 -4 -5 6 -11 9 -5 17 -15 17
-21 0 -7 -5 -6 -15 2 -8 7 -15 9 -15 4 0 -5 -5 -2 -10 6 -9 13 -10 13 -10 0
-1 -9 -6 -5 -15 10 -13 23 -14 23 -15 4 0 -31 -11 -36 -33 -17 -18 17 -19 17
-33 -2 -8 -10 -14 -13 -14 -7 0 16 -32 15 -49 0 -8 -7 -11 -8 -8 -2 4 6 -4 16
-17 22 -21 9 -25 8 -30 -13 -4 -16 -11 -22 -21 -19 -8 3 -14 9 -13 12 2 20 -3
33 -11 27 -5 -3 -16 2 -25 10 -9 10 -17 11 -21 5 -4 -6 -12 -7 -18 -3 -7 4
-16 8 -22 9 -5 1 -50 14 -100 29 -49 15 -110 33 -135 40 -260 76 -409 193
-514 402 -55 110 -79 223 -79 378 0 281 87 506 268 688 26 26 43 47 37 47 -15
0 -123 -119 -165 -183 -90 -136 -142 -297 -153 -477 -17 -292 61 -519 240
-695 68 -66 100 -89 187 -132 104 -51 300 -129 409 -162 l55 -17 2 -285 c2
-265 1 -282 -13 -249 -19 42 -50 150 -59 207 l-7 43 -76 -6 c-139 -9 -287 -25
-292 -31 -3 -3 29 -3 70 1 l75 6 24 -102 c32 -136 77 -223 148 -288 30 -28 73
-61 93 -73 37 -21 69 -57 51 -57 -24 0 -167 108 -203 154 -52 65 -75 117 -104
235 -13 51 -25 95 -27 98 -2 2 -125 -10 -273 -27 -148 -16 -283 -30 -299 -29
-17 0 -41 -2 -55 -3 -41 -5 -34 16 7 23 38 7 37 7 -7 5 l-45 -1 3 -45 c5 -62
47 -221 82 -302 44 -106 131 -227 226 -317 48 -45 91 -81 96 -81 5 0 7 -4 4
-9 -3 -5 2 -8 12 -7 9 0 16 -4 15 -10 -1 -7 5 -11 15 -10 9 0 16 -5 14 -12 -1
-8 2 -11 7 -8 5 3 42 -10 82 -29 41 -19 68 -34 61 -35 -7 0 -27 7 -43 16 -17
8 -33 14 -35 11 -4 -4 105 -52 171 -76 45 -15 183 -49 238 -56 l47 -7 2 -67
c2 -94 -3 -274 -8 -283 -3 -5 -45 -8 -94 -8 -48 0 -96 -3 -105 -6 -31 -12 17
-32 106 -44 46 -6 90 -17 98 -23 10 -9 105 -12 335 -12 394 0 449 12 234 50
l-98 17 0 52 c0 28 -3 107 -6 176 l-7 126 114 22 c296 57 392 90 523 177 149
99 250 218 344 406 69 140 94 251 94 424 1 156 -19 264 -69 385 -63 150 -181
295 -310 383 -120 81 -465 223 -638 263 -59 13 -58 9 -50 244 4 118 8 216 9
218 2 1 14 -26 27 -60 l25 -63 84 -12 c87 -12 112 -9 335 41 11 3 65 14 120
26 149 32 369 83 374 86 15 13 -63 220 -115 306 -33 54 -83 96 -97 81 -4 -3
-13 -1 -20 5 -8 7 -16 9 -19 6 -11 -11 -75 24 -101 56 -15 18 -26 35 -23 37 3
3 30 -3 61 -12 30 -10 58 -15 61 -12 14 14 -119 111 -209 152 -49 23 -254 86
-273 84 -5 0 2 -5 16 -11z m497 -664 c-3 -3 -12 -4 -19 -1 -8 3 -5 6 6 6 11 1
17 -2 13 -5z m-80 -20 c-3 -3 -12 -4 -19 -1 -8 3 -5 6 6 6 11 1 17 -2 13 -5z
m-834 -1987 c28 8 59 17 67 20 8 3 23 8 33 10 30 5 57 23 106 67 38 34 41 36
21 10 -36 -47 -124 -101 -198 -124 -107 -33 -106 -34 -99 63 4 45 8 224 9 397
l3 315 2 -386 3 -387 53 15z m227 560 c46 -58 64 -118 64 -207 1 -72 -4 -94
-26 -140 -27 -54 -47 -82 -81 -109 -16 -13 -17 1 -17 248 0 259 0 262 20 248
10 -7 29 -25 40 -40z m773 -464 c-4 -43 -16 -76 -46 -128 -47 -80 -42 -75
-122 -157 -154 -159 -383 -295 -526 -313 l-44 -5 50 13 c185 49 366 168 498
325 45 53 119 172 156 250 19 40 36 72 37 72 1 0 0 -26 -3 -57z m-1586 -549
c-3 -3 -12 -4 -19 -1 -8 3 -5 6 6 6 11 1 17 -2 13 -5z m40 -10 c-3 -3 -12 -4
-19 -1 -8 3 -5 6 6 6 11 1 17 -2 13 -5z m800 -50 c-3 -3 -12 -4 -19 -1 -8 3
-5 6 6 6 11 1 17 -2 13 -5z m-84 -11 c-7 -2 -19 -2 -25 0 -7 3 -2 5 12 5 14 0
19 -2 13 -5z m-226 -110 c-2 -16 -4 -3 -4 27 0 30 2 43 4 28 2 -16 2 -40 0
-55z"/>
<path d="M1858 3545 c-52 -19 -121 -68 -156 -111 -42 -50 -55 -108 -50 -208 8
-145 64 -223 211 -289 l37 -17 0 320 c0 176 -1 320 -2 319 -2 0 -20 -7 -40
-14z m31 -342 c-1 -74 -3 -82 -10 -48 -7 36 -2 135 7 135 2 0 3 -39 3 -87z"/>
<path d="M2950 2506 c0 -2 8 -10 18 -17 15 -13 16 -12 3 4 -13 16 -21 21 -21
13z"/>
<path d="M2336 2244 c-4 -9 -4 -19 -1 -22 2 -3 7 3 11 12 4 9 4 19 1 22 -2 3
-7 -3 -11 -12z"/>
<path d="M2066 2233 c-6 -14 -5 -15 5 -6 7 7 10 15 7 18 -3 3 -9 -2 -12 -12z"/>
<path d="M2280 2230 c-9 -6 -10 -10 -3 -10 6 0 15 5 18 10 8 12 4 12 -15 0z"/>
<path d="M1951 2214 c0 -11 3 -14 6 -6 3 7 2 16 -1 19 -3 4 -6 -2 -5 -13z"/>
<path d="M2020 2219 c0 -5 5 -7 10 -4 6 3 10 8 10 11 0 2 -4 4 -10 4 -5 0 -10
-5 -10 -11z"/>
<path d="M2918 2183 c7 -3 16 -2 19 1 4 3 -2 6 -13 5 -11 0 -14 -3 -6 -6z"/>
<path d="M3060 2150 c0 -5 5 -10 11 -10 5 0 7 5 4 10 -3 6 -8 10 -11 10 -2 0
-4 -4 -4 -10z"/>
<path d="M1363 1833 c15 -2 37 -2 50 0 12 2 0 4 -28 4 -27 0 -38 -2 -22 -4z"/>
<path d="M1170 1815 c-47 -7 -69 -13 -50 -13 19 0 76 6 125 13 50 7 72 12 50
12 -22 0 -78 -5 -125 -12z"/>
<path d="M1008 1793 c12 -2 32 -2 45 0 12 2 2 4 -23 4 -25 0 -35 -2 -22 -4z"/>
<path d="M1380 976 c0 -3 9 -10 20 -16 11 -6 20 -8 20 -6 0 3 -9 10 -20 16
-11 6 -20 8 -20 6z"/>
</g>
</svg>
